<svg width="536" height="84" viewBox="0 0 536 84" fill="none" xmlns="http://www.w3.org/2000/svg">
<path d="M37.4661 77.2441C30.9586 77.2441 25.0253 75.681 19.6661 72.5548C14.307 69.3968 10.0803 65.1541 6.98602 59.8269C3.92366 54.4677 2.39247 48.5982 2.39247 42.2183C2.39247 35.8384 3.92366 30.0007 6.98602 24.7054C10.0803 19.3781 14.307 15.1674 19.6661 12.0731C25.0253 8.97885 30.9586 7.43172 37.4661 7.43172C41.3898 7.43172 45.1539 8.02186 48.7586 9.20215C52.3633 10.3824 55.633 12.0572 58.5677 14.2263C59.1419 14.7048 59.429 15.2152 59.429 15.7575C59.429 16.2041 59.2695 16.6348 58.9505 17.0495L49.8113 29.0118C49.3966 29.586 48.8862 29.8731 48.2801 29.8731C47.8973 29.8731 47.4667 29.7296 46.9882 29.4425C45.5527 28.5174 44.0056 27.7837 42.3468 27.2414C40.7199 26.6672 39.093 26.3801 37.4661 26.3801C34.8504 26.3801 32.3781 27.0819 30.0495 28.4855C27.7527 29.8891 25.9025 31.803 24.4989 34.2274C23.1272 36.6518 22.4414 39.3314 22.4414 42.2661C22.4414 45.2328 23.1432 47.9443 24.5468 50.4005C25.9504 52.8568 27.8005 54.7867 30.0973 56.1903C32.3941 57.5939 34.8504 58.2957 37.4661 58.2957C39.412 58.2957 41.0708 58.0884 42.4425 57.6737C43.8142 57.2271 45.3613 56.3977 47.0839 55.1855C47.5305 54.8665 47.993 54.707 48.4715 54.707C49.0457 54.707 49.5401 54.9941 49.9548 55.5683L58.9027 67.6263C59.2855 68.1048 59.4769 68.5674 59.4769 69.014C59.4769 69.4925 59.2217 69.9231 58.7113 70.3059C55.7446 72.5389 52.443 74.2615 48.8065 75.4737C45.2018 76.6539 41.4217 77.2441 37.4661 77.2441ZM91.9048 77.4833C85.9715 77.4833 80.6761 76.1276 76.0188 73.4161C71.3933 70.6728 67.7887 67.0043 65.2048 62.4108C62.6209 57.7853 61.329 52.7452 61.329 47.2903C61.329 41.8036 62.5571 36.7475 65.0134 32.122C67.5016 27.4966 70.9627 23.8122 75.3967 21.0688C79.8627 18.3254 84.9347 16.9538 90.6129 16.9538C96.8014 16.9538 102.129 18.2457 106.595 20.8296C111.092 23.4134 114.522 26.9862 116.882 31.5478C119.243 36.1095 120.423 41.3251 120.423 47.1946C120.423 48.8215 120.343 50.2889 120.184 51.5968C120.056 52.8728 119.354 53.5108 118.078 53.5108H80.5166C81.665 55.967 83.3078 57.8332 85.4451 59.1091C87.5824 60.3532 89.9908 60.9753 92.6704 60.9753C94.4887 60.9753 96.0996 60.736 97.5032 60.2575C98.9387 59.779 100.374 59.0772 101.81 58.1522C102.224 57.8332 102.655 57.6737 103.102 57.6737C103.644 57.6737 104.122 57.9767 104.537 58.5828L111.475 68.4398C111.762 68.8545 111.906 69.2692 111.906 69.6839C111.906 70.29 111.635 70.8004 111.092 71.2151C108.445 73.1928 105.51 74.74 102.288 75.8565C99.0663 76.941 95.6052 77.4833 91.9048 77.4833ZM102.001 40.0172C101.076 37.5928 99.6883 35.7905 97.8381 34.6102C95.988 33.398 93.7869 32.7919 91.2349 32.7919C88.6829 32.7919 86.4659 33.398 84.5838 34.6102C82.7337 35.8224 81.3141 37.6247 80.3252 40.0172H102.001ZM161.559 16.9538C165.514 16.9538 169.422 18.1021 173.282 20.3989C173.984 20.9093 174.335 21.4516 174.335 22.0258C174.335 22.4086 174.223 22.7754 174 23.1263L167.492 35.328C167.109 36.0616 166.599 36.4285 165.961 36.4285C165.61 36.4285 165.227 36.3168 164.813 36.0935C162.707 34.9133 160.698 34.3231 158.784 34.3231C156.933 34.3231 155.163 34.8335 153.472 35.8543C151.814 36.8751 150.458 38.4222 149.405 40.4957C148.352 42.5373 147.826 45.0573 147.826 48.0559V73.9903C147.826 74.6283 147.651 75.1228 147.3 75.4737C146.949 75.8246 146.454 76 145.816 76H131.174C130.536 76 130.042 75.8246 129.691 75.4737C129.34 75.1228 129.165 74.6283 129.165 73.9903V19.8726C129.165 18.5647 129.835 17.9107 131.174 17.9107H142.323C143.376 17.9107 144.158 18.3892 144.668 19.3462L147.539 23.7484C149.07 21.5473 151.016 19.8726 153.377 18.7242C155.769 17.5439 158.496 16.9538 161.559 16.9538ZM293.706 77.4833C287.964 77.4833 282.812 76.1276 278.25 73.4161C273.689 70.6728 270.132 67.0043 267.58 62.4108C265.028 57.8172 263.752 52.793 263.752 47.3382C263.752 41.7876 265.012 36.6996 267.532 32.0742C270.084 27.4487 273.641 23.7803 278.202 21.0688C282.796 18.3254 287.996 16.9538 293.801 16.9538C297.565 16.9538 301.09 17.4961 304.376 18.5806C307.662 19.6652 310.596 21.1805 313.18 23.1263C313.755 23.541 314.042 24.0514 314.042 24.6575C314.042 25.0403 313.898 25.455 313.611 25.9016L306.481 36.1892C306.035 36.8272 305.54 37.1462 304.998 37.1462C304.647 37.1462 304.201 36.9867 303.658 36.6677C302.191 35.7427 300.771 35.0568 299.4 34.6102C298.028 34.1317 296.401 33.8925 294.519 33.8925C292.35 33.8925 290.324 34.4667 288.442 35.6151C286.56 36.7634 285.061 38.3584 283.944 40.4C282.828 42.4416 282.27 44.7543 282.27 47.3382C282.27 49.8263 282.828 52.0753 283.944 54.0849C285.093 56.0946 286.608 57.6737 288.49 58.822C290.404 59.9704 292.43 60.5446 294.567 60.5446C296.417 60.5446 298.028 60.3213 299.4 59.8747C300.803 59.4281 302.223 58.7423 303.658 57.8172C304.201 57.4982 304.631 57.3387 304.95 57.3387C305.493 57.3387 305.987 57.6577 306.434 58.2957L313.611 68.5833C313.962 69.0937 314.137 69.5403 314.137 69.9231C314.137 70.4016 313.93 70.8004 313.515 71.1194C310.836 73.129 307.837 74.6921 304.52 75.8086C301.202 76.9251 297.597 77.4833 293.706 77.4833ZM325.466 12.3124C324.159 12.3124 323.505 11.6425 323.505 10.3027V-2.66452C323.505 -4.0043 324.159 -4.6742 325.466 -4.6742H340.252C341.592 -4.6742 342.262 -4.0043 342.262 -2.66452V10.3027C342.262 11.6425 341.592 12.3124 340.252 12.3124H325.466ZM342.166 73.9903C342.166 74.6283 341.99 75.1228 341.64 75.4737C341.289 75.8246 340.794 76 340.156 76H325.514C324.876 76 324.382 75.8246 324.031 75.4737C323.68 75.1228 323.505 74.6283 323.505 73.9903V19.8726C323.505 18.5647 324.175 17.9107 325.514 17.9107H340.156C341.496 17.9107 342.166 18.5647 342.166 19.8726V73.9903ZM389.819 16.9538C394.573 16.9538 398.735 18.0543 402.308 20.2554C405.881 22.4246 408.64 25.5029 410.586 29.4903C412.532 33.4778 413.505 38.0873 413.505 43.3188V73.9903C413.505 75.3301 412.851 76 411.543 76H396.901C395.561 76 394.892 75.3301 394.892 73.9903V45.4242C394.892 43.1593 394.477 41.1656 393.647 39.443C392.85 37.6885 391.686 36.3328 390.154 35.3758C388.655 34.4188 386.917 33.9403 384.939 33.9403C382.77 33.9403 380.808 34.4507 379.053 35.4715C377.299 36.4923 375.927 37.8161 374.938 39.443C373.949 41.0699 373.455 42.7606 373.455 44.5151V73.9903C373.455 74.6283 373.28 75.1228 372.929 75.4737C372.578 75.8246 372.083 76 371.445 76H356.803C356.165 76 355.671 75.8246 355.32 75.4737C354.969 75.1228 354.794 74.6283 354.794 73.9903V19.8726C354.794 18.5647 355.464 17.9107 356.803 17.9107H367.952C369.005 17.9107 369.787 18.3892 370.297 19.3462L372.833 23.5091C375.098 21.5633 377.809 19.9842 380.967 18.772C384.157 17.5599 387.108 16.9538 389.819 16.9538ZM450.933 77.4833C445.191 77.4833 440.039 76.1276 435.478 73.4161C430.916 70.6728 427.359 67.0043 424.807 62.4108C422.255 57.8172 420.979 52.793 420.979 47.3382C420.979 41.7876 422.239 36.6996 424.759 32.0742C427.311 27.4487 430.868 23.7803 435.43 21.0688C440.023 18.3254 445.223 16.9538 451.029 16.9538C454.793 16.9538 458.318 17.4961 461.604 18.5806C464.889 19.6652 467.824 21.1805 470.408 23.1263C470.982 23.541 471.269 24.0514 471.269 24.6575C471.269 25.0403 471.126 25.455 470.839 25.9016L463.709 36.1892C463.262 36.8272 462.768 37.1462 462.226 37.1462C461.875 37.1462 461.428 36.9867 460.886 36.6677C459.418 35.7427 457.999 35.0568 456.627 34.6102C455.256 34.1317 453.629 33.8925 451.747 33.8925C449.577 33.8925 447.552 34.4667 445.67 35.6151C443.788 36.7634 442.288 38.3584 441.172 40.4C440.055 42.4416 439.497 44.7543 439.497 47.3382C439.497 49.8263 440.055 52.0753 441.172 54.0849C442.32 56.0946 443.835 57.6737 445.718 58.822C447.632 59.9704 449.657 60.5446 451.794 60.5446C453.645 60.5446 455.256 60.3213 456.627 59.8747C458.031 59.4281 459.45 58.7423 460.886 57.8172C461.428 57.4982 461.859 57.3387 462.178 57.3387C462.72 57.3387 463.215 57.6577 463.661 58.2957L470.839 68.5833C471.189 69.0937 471.365 69.5403 471.365 69.9231C471.365 70.4016 471.158 70.8004 470.743 71.1194C468.063 73.129 465.065 74.6921 461.747 75.8086C458.43 76.9251 454.825 77.4833 450.933 77.4833Z" fill="url(#paint0_linear_3_66)"/>
<path fill-rule="evenodd" clip-rule="evenodd" d="M203.5 61C217.031 61 228 51.3741 228 39.5C228 27.6259 217.031 18 203.5 18C189.969 18 179 27.6259 179 39.5C179 51.3741 189.969 61 203.5 61ZM202.979 48C208.737 48 213.404 44.1944 213.404 39.5C213.404 34.8056 208.737 31 202.979 31C197.221 31 192.553 34.8056 192.553 39.5C192.553 44.1944 197.221 48 202.979 48Z" fill="url(#paint1_linear_3_66)"/>
<rect x="179" y="66" width="49" height="10" rx="1" fill="url(#paint2_linear_3_66)"/>
<path fill-rule="evenodd" clip-rule="evenodd" d="M504.5 61C518.031 61 529 51.3741 529 39.5C529 27.6259 518.031 18 504.5 18C490.969 18 480 27.6259 480 39.5C480 51.3741 490.969 61 504.5 61ZM503.979 48C509.737 48 514.404 44.1944 514.404 39.5C514.404 34.8056 509.737 31 503.979 31C498.221 31 493.553 34.8056 493.553 39.5C493.553 44.1944 498.221 48 503.979 48Z" fill="url(#paint3_linear_3_66)"/>
<rect x="480" y="66" width="49" height="10" rx="1" fill="url(#paint4_linear_3_66)"/>
<defs>
<linearGradient id="paint0_linear_3_66" x1="291" y1="2" x2="291" y2="84" gradientUnits="userSpaceOnUse">
<stop stop-color="#8AF37F"/>
<stop offset="1" stop-color="#D2F75E"/>
</linearGradient>
<linearGradient id="paint1_linear_3_66" x1="203.5" y1="18" x2="203.5" y2="61" gradientUnits="userSpaceOnUse">
<stop stop-color="#8AF37F"/>
<stop offset="1" stop-color="#D2F75E"/>
</linearGradient>
<linearGradient id="paint2_linear_3_66" x1="179" y1="71" x2="228" y2="71" gradientUnits="userSpaceOnUse">
<stop stop-color="#8AF37F"/>
<stop offset="1" stop-color="#D2F75E"/>
</linearGradient>
<linearGradient id="paint3_linear_3_66" x1="504.5" y1="18" x2="504.5" y2="61" gradientUnits="userSpaceOnUse">
<stop stop-color="#8AF37F"/>
<stop offset="1" stop-color="#D2F75E"/>
</linearGradient>
<linearGradient id="paint4_linear_3_66" x1="504.5" y1="66" x2="504.5" y2="76" gradientUnits="userSpaceOnUse">
<stop stop-color="#8AF37F"/>
<stop offset="1" stop-color="#D2F75E"/>
</linearGradient>
</defs>
</svg>
