<svg width="84" height="84" viewBox="0 0 84 84" fill="none" xmlns="http://www.w3.org/2000/svg">
<path d="M39.8349 3.75C40.7972 2.08333 43.2028 2.08333 44.1651 3.75L76.208 59.25C77.1702 60.9167 75.9674 63 74.0429 63H9.95706C8.03256 63 6.82975 60.9167 7.792 59.25L39.8349 3.75Z" fill="#FBEE79"/>
<path d="M44.0027 42.7554C44.0027 43.1228 43.8145 43.3065 43.4382 43.3065H39.3253C38.9489 43.3065 38.7608 43.1228 38.7608 42.7554V29.5565C38.7608 29.3772 38.81 29.2384 38.9086 29.1398C39.0072 29.0412 39.1461 28.9919 39.3253 28.9919H43.4382C43.6174 28.9919 43.7563 29.0412 43.8548 29.1398C43.9534 29.2384 44.0027 29.3772 44.0027 29.5565V42.7554ZM43.4651 44.879C43.8414 44.879 44.0296 45.0672 44.0296 45.4435V49.4355C44.0296 49.8118 43.8414 50 43.4651 50H39.3118C38.9444 50 38.7608 49.8118 38.7608 49.4355V45.4435C38.7608 45.0672 38.9444 44.879 39.3118 44.879H43.4651Z" fill="#FDFDFD"/>
</svg>
