<svg width="53" height="49" viewBox="0 0 53 49" fill="none" xmlns="http://www.w3.org/2000/svg">
<path d="M40.48 18.3578C42.8698 19.5417 45.5765 19.8921 48.1818 19.355V46.55C48.1818 47.1998 47.928 47.823 47.4762 48.2824C47.0244 48.7419 46.4117 49 45.7727 49H2.40909C1.77016 49 1.1574 48.7419 0.705606 48.2824C0.253814 47.823 0 47.1998 0 46.55V7.35C0 6.70022 0.253814 6.07705 0.705606 5.61759C1.1574 5.15812 1.77016 4.9 2.40909 4.9H33.9682C33.8092 5.69135 33.7273 6.5121 33.7273 7.35C33.7233 10.2607 34.7426 13.077 36.6013 15.2905L24.2379 26.1733L8.78595 12.8331L5.66859 16.5669L24.2668 32.6267L40.48 18.3578ZM45.7727 14.7C44.8236 14.7 43.8838 14.5099 43.007 14.1405C42.1301 13.7711 41.3334 13.2297 40.6623 12.5472C39.9912 11.8647 39.4588 11.0545 39.0956 10.1627C38.7324 9.27098 38.5455 8.31522 38.5455 7.35C38.5455 6.38478 38.7324 5.42902 39.0956 4.53728C39.4588 3.64553 39.9912 2.83528 40.6623 2.15277C41.3334 1.47025 42.1301 0.928857 43.007 0.559485C43.8838 0.190113 44.8236 -1.43828e-08 45.7727 0C47.6895 2.90475e-08 49.5278 0.774373 50.8832 2.15277C52.2386 3.53116 53 5.40066 53 7.35C53 9.29934 52.2386 11.1688 50.8832 12.5472C49.5278 13.9256 47.6895 14.7 45.7727 14.7Z" fill="url(#paint0_linear_48_184)"/>
<defs>
<linearGradient id="paint0_linear_48_184" x1="26.5" y1="0" x2="26.5" y2="49" gradientUnits="userSpaceOnUse">
<stop stop-color="#8AF37F"/>
<stop offset="1" stop-color="#D2F75E"/>
</linearGradient>
</defs>
</svg>
