<svg width="40" height="49" viewBox="0 0 40 49" fill="none" xmlns="http://www.w3.org/2000/svg">
<path d="M2.45 49C1.80022 49 1.17705 48.7419 0.717589 48.2824C0.258125 47.8229 0 47.1998 0 46.55V2.45C0 1.80022 0.258125 1.17705 0.717589 0.717588C1.17705 0.258124 1.80022 0 2.45 0H36.75C37.3998 0 38.023 0.258124 38.4824 0.717588C38.9419 1.17705 39.2 1.80022 39.2 2.45V46.55C39.2 47.1998 38.9419 47.8229 38.4824 48.2824C38.023 48.7419 37.3998 49 36.75 49H2.45ZM26.95 34.3L39.2 24.5L26.95 14.7V22.05H12.25V26.95H26.95V34.3Z" fill="url(#paint0_linear_48_186)"/>
<defs>
<linearGradient id="paint0_linear_48_186" x1="19.6" y1="0" x2="19.6" y2="49" gradientUnits="userSpaceOnUse">
<stop stop-color="#8AF37F"/>
<stop offset="1" stop-color="#D2F75E"/>
</linearGradient>
</defs>
</svg>
