<svg width="26" height="21" viewBox="0 0 26 21" fill="none" xmlns="http://www.w3.org/2000/svg">
<path d="M0.756836 10.5C1.8535 4.52667 7.08717 0 13.3778 0C19.6685 0 24.9022 4.52667 26 10.5C24.9033 16.4733 19.6685 21 13.3778 21C7.08717 21 1.8535 16.4733 0.756836 10.5ZM13.3778 16.3333C14.9249 16.3333 16.4087 15.7188 17.5026 14.6248C18.5966 13.5308 19.2112 12.0471 19.2112 10.5C19.2112 8.9529 18.5966 7.46917 17.5026 6.37521C16.4087 5.28125 14.9249 4.66667 13.3778 4.66667C11.8307 4.66667 10.347 5.28125 9.25305 6.37521C8.15908 7.46917 7.5445 8.9529 7.5445 10.5C7.5445 12.0471 8.15908 13.5308 9.25305 14.6248C10.347 15.7188 11.8307 16.3333 13.3778 16.3333ZM13.3778 14C12.4496 14 11.5593 13.6313 10.903 12.9749C10.2466 12.3185 9.87784 11.4283 9.87784 10.5C9.87784 9.57174 10.2466 8.6815 10.903 8.02513C11.5593 7.36875 12.4496 7 13.3778 7C14.3061 7 15.1963 7.36875 15.8527 8.02513C16.5091 8.6815 16.8778 9.57174 16.8778 10.5C16.8778 11.4283 16.5091 12.3185 15.8527 12.9749C15.1963 13.6313 14.3061 14 13.3778 14Z" fill="url(#paint0_linear_105_8)"/>
<defs>
<linearGradient id="paint0_linear_105_8" x1="13.3784" y1="0" x2="13.3784" y2="21" gradientUnits="userSpaceOnUse">
<stop stop-color="#8AF37F"/>
<stop offset="1" stop-color="#D2F75E"/>
</linearGradient>
</defs>
</svg>
