<svg width="47" height="58" viewBox="0 0 47 58" fill="none" xmlns="http://www.w3.org/2000/svg">
<path fill-rule="evenodd" clip-rule="evenodd" d="M23.5 43C36.4787 43 47 33.3741 47 21.5C47 9.62588 36.4787 0 23.5 0C10.5213 0 0 9.62588 0 21.5C0 33.3741 10.5213 43 23.5 43ZM23 30C28.5228 30 33 26.1944 33 21.5C33 16.8056 28.5228 13 23 13C17.4772 13 13 16.8056 13 21.5C13 26.1944 17.4772 30 23 30Z" fill="url(#paint0_linear_3_157)"/>
<rect y="48" width="47" height="10" rx="1" fill="url(#paint1_linear_3_157)"/>
<defs>
<linearGradient id="paint0_linear_3_157" x1="23.5" y1="0" x2="23.5" y2="43" gradientUnits="userSpaceOnUse">
<stop stop-color="#8AF37F"/>
<stop offset="1" stop-color="#D2F75E"/>
</linearGradient>
<linearGradient id="paint1_linear_3_157" x1="23.5" y1="48" x2="23.5" y2="58" gradientUnits="userSpaceOnUse">
<stop stop-color="#8AF37F"/>
<stop offset="1" stop-color="#D2F75E"/>
</linearGradient>
</defs>
</svg>
